<svg viewBox="0 0 64 64" xmlns="http://www.w3.org/2000/svg">
      <rect width="64" height="64" rx="12" fill="#c5ed70" />
      <path d="m46 22 12-4-4 10 5 6-14-3Z" fill="#ff8966" />
      <path d="m12 24 11-15h18l11 15-3 24-17 9-17-9Z" fill="#253e3c" />
      <path d="M17 27h30v13q-15 8-30 0Z" fill="#d4ee99" />
      <path d="m23 32 6 3m6 0 6-3" stroke="#172337" stroke-width="3" stroke-linecap="round" />
      <path d="M12 21q20-4 40 0v8q-20-4-40 0Z" fill="#ff8966" />
      <path d="m32 19 4 5-4 4-4-4Z" fill="#253e3c" />
      <path d="m25 46 7 3 7-3" fill="none" stroke="#53617a" stroke-width="2" stroke-linecap="round" />
    </svg>
